<svg width="82" height="102" viewBox="0 0 82 102" fill="none" xmlns="http://www.w3.org/2000/svg">
<g clip-path="url(#clip0_311_5)">
<mask id="mask0_311_5" style="mask-type:luminance" maskUnits="userSpaceOnUse" x="0" y="0" width="82" height="102">
<path fill-rule="evenodd" clip-rule="evenodd" d="M0 101.873H82V7.62939e-06H0V101.873Z" fill="white"/>
</mask>
<g mask="url(#mask0_311_5)">
<mask id="mask1_311_5" style="mask-type:luminance" maskUnits="userSpaceOnUse" x="0" y="0" width="82" height="102">
<path fill-rule="evenodd" clip-rule="evenodd" d="M0 0.0181961V101.873H81.9806V0.0181961H0Z" fill="white"/>
</mask>
<g mask="url(#mask1_311_5)">
<path d="M60.2314 3.0285C60.15 3.04366 60.0693 3.06006 59.9879 3.07709C58.4948 3.38645 57.0146 3.68227 55.5432 4.07352C55.3138 4.13454 55.0614 4.20969 54.7983 4.29337C54.2987 4.45223 53.7348 4.65549 53.1778 4.86759C51.2177 5.61393 49.3863 6.66401 47.7619 7.99086C47.7168 8.0276 47.6767 8.06076 47.6423 8.08972C46.7438 8.84829 45.8682 9.6323 45.0166 10.4425C44.165 11.2526 43.3374 12.0877 42.5346 12.9463C40.9194 14.6749 39.5496 16.6163 38.462 18.7163L37.3026 21.0665C36.6629 22.3637 36.1548 23.7225 35.7969 25.1244C35.6976 25.5128 35.6101 25.8985 35.5506 26.2407L35.3574 26.2362C32.4014 26.1694 29.4826 25.565 26.7429 24.4524C26.2817 24.2654 25.8284 24.0601 25.3838 23.8377C24.9392 23.6148 24.5032 23.3755 24.0764 23.1185C22.7129 22.297 21.1129 21.2431 20.2408 20.5376L20.1732 20.483C19.0617 19.5827 17.8882 18.7626 16.6615 18.0276L15.2401 17.1764C14.4383 16.6965 13.4565 16.6245 12.5933 16.9821C11.9931 17.2308 11.4559 17.5949 11.008 18.0471C10.5601 18.4995 10.2013 19.0406 9.95849 19.6428C9.33728 21.185 8.84942 22.7743 8.49979 24.3937C8.14947 26.0131 7.93676 27.6626 7.86586 29.3233L7.84674 29.7749C7.51986 37.4008 7.88209 45.0411 8.92891 52.602L9.63569 57.7051L14.1697 84.2776L13.6895 83.0251C11.1862 76.492 9.01467 69.8361 7.18397 63.0843L4.35461 52.6526C2.57775 46.1002 1.25752 39.4327 0.404357 32.6971L0.37604 32.4766C-0.271234 27.3679 -0.0811355 22.236 0.932694 17.2358C1.08997 16.4614 1.24424 15.7007 1.38711 14.9973C1.87571 12.5861 2.9909 10.346 4.61999 8.50191L4.81921 8.27636C6.43963 6.44239 8.63595 5.21508 11.0466 4.79651L11.1911 4.77138C12.6634 4.51611 14.1774 4.64729 15.5838 5.15247L15.6485 5.17571C17.0002 5.66132 18.2155 6.46414 19.193 7.51672C19.8648 8.24044 20.6738 9.11084 21.4208 9.91473C22.9326 11.5412 24.7339 12.8722 26.7325 13.8404L27.9843 14.446C28.7589 14.8214 29.635 14.9327 30.4786 14.7633L30.5162 14.7555C31.5707 14.5441 32.5353 14.0332 33.2985 13.2853L37.8126 8.86044C39.5738 7.13431 41.4217 5.49825 43.3488 3.95931L45.073 2.58206C47.1228 0.944832 49.6625 0.0423584 52.2854 0.0187149C53.8489 0.00463104 55.3832 0.303009 56.804 0.880783C58.053 1.38862 59.2143 2.1123 60.2314 3.0285Z" fill="black"/>
</g>
<mask id="mask2_311_5" style="mask-type:luminance" maskUnits="userSpaceOnUse" x="0" y="0" width="82" height="102">
<path fill-rule="evenodd" clip-rule="evenodd" d="M0 0.0181961V101.873H81.9806V0.0181961H0Z" fill="white"/>
</mask>
<g mask="url(#mask2_311_5)">
<path d="M52.3985 18.4526L53.4023 17.4341C55.9406 15.2954 58.1975 13.8535 61.0754 12.7801C61.1011 12.7706 61.1277 12.7643 61.1539 12.7564C61.1539 12.7564 60.7186 20.8116 59.8555 24.7517C59.3007 27.2841 58.5773 29.7765 57.6899 32.2123L53.9732 42.415C53.0769 44.8757 52.0672 47.2937 50.9474 49.6611L49.5616 52.5911C48.6806 54.4538 47.7227 56.2791 46.6903 58.0623L44.1019 62.5331L46.2334 54.5087L48.978 42.2086C49.405 40.2953 49.7493 38.3646 50.01 36.4217L51.1494 27.9316C51.3734 26.2621 51.4876 24.5802 51.6081 23.0878C51.6669 22.3593 51.7095 21.63 51.736 20.8996L51.7722 19.9045C51.792 19.3593 52.0155 18.8412 52.3985 18.4526Z" fill="black"/>
</g>
<mask id="mask3_311_5" style="mask-type:luminance" maskUnits="userSpaceOnUse" x="0" y="0" width="82" height="102">
<path fill-rule="evenodd" clip-rule="evenodd" d="M0 0.0181961V101.873H81.9806V0.0181961H0Z" fill="white"/>
</mask>
<g mask="url(#mask3_311_5)">
<path d="M78.6133 11.4711L77.8071 11.2378C75.1772 10.4765 72.4671 10.0266 69.7325 9.89744L67.7627 9.80434C66.5171 9.74554 65.2695 9.84297 64.0477 10.0944C62.4361 10.4263 60.86 10.9125 59.3414 11.5463L59.2047 11.6034C58.1652 12.0372 57.1526 12.5331 56.1725 13.0884C54.6523 13.9497 53.2555 15.0125 52.0201 16.2479C50.4693 17.7987 49.1539 19.568 48.1157 21.4996C47.3674 22.8918 46.8508 24.3965 46.5862 25.9548H46.5862C46.4783 26.5899 46.5407 27.2423 46.7669 27.8454C46.906 28.2165 47.1979 28.5099 47.5682 28.6509L49.6188 29.4321L48.5844 37.9895L48.2444 38.0208C46.7947 38.0208 45.3532 37.8028 43.9683 37.3742L42.575 36.943C41.8284 36.712 41.1509 36.2991 40.6032 35.7416C39.5662 34.686 38.8038 33.3921 38.3826 31.9736L38.3757 31.9503C38.0167 30.741 37.8768 29.4772 37.9626 28.2187L38.057 26.8332C38.1197 26.4655 38.2192 26.0412 38.3326 25.6127C38.7031 24.2145 39.2234 22.8601 39.8749 21.5686L41.0551 19.229C42.1616 17.1388 43.5493 15.21 45.1794 13.4963C45.8889 12.7503 46.798 11.8488 47.5959 11.071C48.8907 9.80874 50.3123 8.68374 51.8414 7.71874C52.6312 7.22028 53.4484 6.72815 53.9987 6.45858H53.9988C56.8077 5.27248 59.7304 4.37642 62.7211 3.78434H62.7217C65.0018 3.33293 67.3446 3.29028 69.6397 3.65839C71.7104 3.9905 73.6375 4.92473 75.181 6.34461C76.7157 7.75673 77.8924 9.51402 78.6133 11.4711Z" fill="black"/>
</g>
<mask id="mask4_311_5" style="mask-type:luminance" maskUnits="userSpaceOnUse" x="0" y="0" width="82" height="102">
<path fill-rule="evenodd" clip-rule="evenodd" d="M0 0.0181961V101.873H81.9806V0.0181961H0Z" fill="white"/>
</mask>
<g mask="url(#mask4_311_5)">
<path d="M60.0626 28.4354L57.262 37.1864L57.6884 37.0692C59.3025 36.6254 60.9354 36.2528 62.5823 35.9525L63.866 35.7183C65.8151 35.3629 67.7999 35.246 69.7772 35.3701C70.6066 35.4222 71.3946 35.7498 72.0165 36.301C72.7657 36.965 73.2108 37.9064 73.2484 38.9067L73.2992 40.2696C73.343 41.4253 73.1625 42.5786 72.7688 43.666L72.3024 44.9549C71.4805 47.2266 70.4166 49.4035 69.1296 51.4481L68.3798 52.6383C66.6426 55.3988 64.634 57.9791 62.3845 60.3412L62.1142 60.625C59.9657 62.8811 57.5273 64.842 54.8631 66.4576H54.863C53.4922 67.2883 52.0055 67.9108 50.4516 68.3045C48.534 68.7903 46.5373 68.8794 44.584 68.5659C42.9832 68.3095 41.5102 67.5359 40.3896 66.3642L39.0544 64.9681C37.3966 63.2346 36.1201 61.1735 35.3069 58.9169L33.6118 54.2128L33.4133 60.1709C33.3652 61.6165 33.4317 63.0635 33.6122 64.4985C33.9541 67.2174 34.6499 69.8799 35.682 72.4183C36.3426 74.0432 37.3735 75.4914 38.6925 76.648H38.6925C40.2522 78.0153 42.1494 78.9407 44.1873 79.3275L44.2003 79.33C45.8444 79.6415 47.5344 79.6221 49.1708 79.2717C51.7898 78.7112 54.3358 77.8505 56.7548 76.7007C56.7715 76.6926 56.7888 76.6844 56.8068 76.6756C58.1515 76.0318 59.4392 75.2757 60.6603 74.42C61.8322 73.5994 63.2918 72.5386 64.1751 71.7556L65.3274 70.7344C67.0294 69.2248 68.5704 67.5434 69.9264 65.7166L72.5155 62.2282C73.4565 60.9595 74.3091 59.627 75.0658 58.2402L77.7665 53.2916C78.5915 51.7802 79.2874 50.2019 79.8479 48.5734L80.5895 46.4149C81.1531 44.7765 81.5437 43.0838 81.7549 41.3641L81.849 40.5982C82.0891 38.6406 82.0001 36.6565 81.5857 34.7283C81.1788 32.8333 80.2478 31.0908 78.8987 29.6988C77.9414 28.711 76.7791 27.9456 75.4934 27.4568C73.7988 26.8128 71.9889 26.5302 70.179 26.627L68.0858 26.7389C66.4984 26.8239 64.9249 27.0818 63.3927 27.5082L60.0626 28.4354Z" fill="black"/>
</g>
<mask id="mask5_311_5" style="mask-type:luminance" maskUnits="userSpaceOnUse" x="0" y="0" width="82" height="102">
<path fill-rule="evenodd" clip-rule="evenodd" d="M0 0.0181961V101.873H81.9806V0.0181961H0Z" fill="white"/>
</mask>
<g mask="url(#mask5_311_5)">
<path d="M74.6236 88.8985H7.35675C15.0844 88.2283 22.8376 87.8929 30.5943 87.8929H51.3842C59.1415 87.8929 66.8951 88.2283 74.6236 88.8985Z" fill="black"/>
</g>
<mask id="mask6_311_5" style="mask-type:luminance" maskUnits="userSpaceOnUse" x="0" y="0" width="82" height="102">
<path fill-rule="evenodd" clip-rule="evenodd" d="M0 0.0181961V101.873H81.9806V0.0181961H0Z" fill="white"/>
</mask>
<g mask="url(#mask6_311_5)">
<path d="M74.6236 100.873C66.8951 101.539 59.1418 101.873 51.3847 101.873H30.5938C22.8374 101.873 15.0845 101.539 7.35675 100.873H74.6236Z" fill="black"/>
</g>
<mask id="mask7_311_5" style="mask-type:luminance" maskUnits="userSpaceOnUse" x="0" y="0" width="82" height="102">
<path fill-rule="evenodd" clip-rule="evenodd" d="M0 0.0181961V101.873H81.9806V0.0181961H0Z" fill="white"/>
</mask>
<g mask="url(#mask7_311_5)">
<path d="M1.91805 98.0372H4.22131C4.90605 98.0372 5.50085 97.9024 6.0058 97.6328C6.51062 97.3626 6.9015 96.9915 7.17822 96.5176C7.45475 96.0436 7.59317 95.4988 7.59317 94.8832C7.59317 94.2676 7.45475 93.7228 7.17822 93.2495C6.9015 92.7755 6.51062 92.4038 6.0058 92.1342C5.50085 91.864 4.90605 91.7292 4.22131 91.7292H1.91805V98.0372ZM1.38892 98.5149V91.2521H4.26282C5.03057 91.2521 5.70493 91.4076 6.28593 91.7192C6.86696 92.0301 7.31827 92.4589 7.63987 93.0056C7.96148 93.5516 8.12234 94.1779 8.12234 94.8832C8.12234 95.5891 7.96148 96.2148 7.63987 96.7614C7.31827 97.3075 6.86696 97.7363 6.28593 98.0478C5.70493 98.3588 5.03057 98.5149 4.26282 98.5149H1.38892Z" fill="black"/>
</g>
<mask id="mask8_311_5" style="mask-type:luminance" maskUnits="userSpaceOnUse" x="0" y="0" width="82" height="102">
<path fill-rule="evenodd" clip-rule="evenodd" d="M0 0.0181961V101.873H81.9806V0.0181961H0Z" fill="white"/>
</mask>
<g mask="url(#mask8_311_5)">
<path d="M10.4258 94.5929H14.358V95.06H10.4258V94.5929ZM10.4881 98.0372H14.9701V98.5149H9.95892V91.2521H14.8145V91.7292H10.4881V98.0372Z" fill="black"/>
</g>
<mask id="mask9_311_5" style="mask-type:luminance" maskUnits="userSpaceOnUse" x="0" y="0" width="82" height="102">
<path fill-rule="evenodd" clip-rule="evenodd" d="M0 0.0181961V101.873H81.9806V0.0181961H0Z" fill="white"/>
</mask>
<g mask="url(#mask9_311_5)">
<path d="M16.8995 98.5149V91.2521H17.3456L22.5228 97.861H22.2842V91.2521H22.8133V98.5149H22.3776L17.19 91.906H17.4287V98.5149H16.8995Z" fill="black"/>
</g>
<mask id="mask10_311_5" style="mask-type:luminance" maskUnits="userSpaceOnUse" x="0" y="0" width="82" height="102">
<path fill-rule="evenodd" clip-rule="evenodd" d="M0 0.0181961V101.873H81.9806V0.0181961H0Z" fill="white"/>
</mask>
<g mask="url(#mask10_311_5)">
<path d="M26.735 98.5149V91.7292H24.1205V91.2521H29.8786V91.7292H27.2641V98.5149H26.735Z" fill="black"/>
</g>
<mask id="mask11_311_5" style="mask-type:luminance" maskUnits="userSpaceOnUse" x="0" y="0" width="82" height="102">
<path fill-rule="evenodd" clip-rule="evenodd" d="M0 0.0181961V101.873H81.9806V0.0181961H0Z" fill="white"/>
</mask>
<g mask="url(#mask11_311_5)">
<path d="M30.8332 96.4705L31.0096 96.0248H35.3568L35.5331 96.4705H30.8332ZM29.609 98.5149L32.9498 91.2521H33.4789L36.8197 98.5149H36.249L33.095 91.5838H33.3233L30.1796 98.5149H29.609Z" fill="black"/>
</g>
<mask id="mask12_311_5" style="mask-type:luminance" maskUnits="userSpaceOnUse" x="0" y="0" width="82" height="102">
<path fill-rule="evenodd" clip-rule="evenodd" d="M0 0.0181961V101.873H81.9806V0.0181961H0Z" fill="white"/>
</mask>
<g mask="url(#mask12_311_5)">
<path d="M38.1371 98.5149V91.2521H38.6663V98.0372H42.8474V98.5149H38.1371Z" fill="black"/>
</g>
<mask id="mask13_311_5" style="mask-type:luminance" maskUnits="userSpaceOnUse" x="0" y="0" width="82" height="102">
<path fill-rule="evenodd" clip-rule="evenodd" d="M0 0.0181961V101.873H81.9806V0.0181961H0Z" fill="white"/>
</mask>
<g mask="url(#mask13_311_5)">
<path d="M49.9438 98.5663C49.4043 98.5663 48.9045 98.4748 48.4446 98.2918C47.9845 98.1081 47.5851 97.8504 47.2463 97.5188C46.9073 97.1865 46.6445 96.7978 46.4578 96.3515C46.271 95.9051 46.1777 95.4161 46.1777 94.8832C46.1777 94.351 46.271 93.8614 46.4578 93.415C46.6445 92.9693 46.9091 92.58 47.2514 92.2483C47.5939 91.9161 47.9933 91.6584 48.4498 91.4754C48.9063 91.2923 49.4043 91.2001 49.9438 91.2001C50.4556 91.2001 50.9346 91.2835 51.3807 91.449C51.8269 91.6152 52.209 91.8678 52.5272 92.2063L52.1952 92.5493C51.8839 92.2446 51.5398 92.0252 51.1629 91.8904C50.7858 91.755 50.3864 91.6879 49.9645 91.6879C49.5011 91.6879 49.0706 91.7675 48.6728 91.9267C48.275 92.086 47.9293 92.3104 47.6354 92.6007C47.3413 92.8915 47.113 93.2301 46.9506 93.6175C46.788 94.0049 46.7068 94.4269 46.7068 94.8832C46.7068 95.3396 46.788 95.7615 46.9506 96.149C47.113 96.5364 47.3413 96.8756 47.6354 97.1658C47.9293 97.4561 48.275 97.6811 48.6728 97.8404C49.0706 97.9996 49.5011 98.0786 49.9645 98.0786C50.3864 98.0786 50.7858 98.0115 51.1629 97.8767C51.5398 97.742 51.8839 97.5188 52.1952 97.2072L52.5272 97.5495C52.209 97.8887 51.8269 98.1432 51.3807 98.3125C50.9346 98.4817 50.4556 98.5663 49.9438 98.5663Z" fill="black"/>
</g>
<mask id="mask14_311_5" style="mask-type:luminance" maskUnits="userSpaceOnUse" x="0" y="0" width="82" height="102">
<path fill-rule="evenodd" clip-rule="evenodd" d="M0 0.0181961V101.873H81.9806V0.0181961H0Z" fill="white"/>
</mask>
<g mask="url(#mask14_311_5)">
<path d="M54.3009 98.5149V91.2521H54.8301V98.0372H59.0112V98.5149H54.3009Z" fill="black"/>
</g>
<mask id="mask15_311_5" style="mask-type:luminance" maskUnits="userSpaceOnUse" x="0" y="0" width="82" height="102">
<path fill-rule="evenodd" clip-rule="evenodd" d="M0 0.0181961V101.873H81.9806V0.0181961H0Z" fill="white"/>
</mask>
<g mask="url(#mask15_311_5)">
<path d="M60.3704 98.5149V91.2521H60.8995V98.5149H60.3704Z" fill="black"/>
</g>
<mask id="mask16_311_5" style="mask-type:luminance" maskUnits="userSpaceOnUse" x="0" y="0" width="82" height="102">
<path fill-rule="evenodd" clip-rule="evenodd" d="M0 0.0181961V101.873H81.9806V0.0181961H0Z" fill="white"/>
</mask>
<g mask="url(#mask16_311_5)">
<path d="M63.431 98.5149V91.2521H63.8774L69.0544 97.861H68.8156V91.2521H69.3453V98.5149H68.909L63.7219 91.906H63.9601V98.5149H63.431Z" fill="black"/>
</g>
<mask id="mask17_311_5" style="mask-type:luminance" maskUnits="userSpaceOnUse" x="0" y="0" width="82" height="102">
<path fill-rule="evenodd" clip-rule="evenodd" d="M0 0.0181928V101.873H81.9806V0.0181928H0Z" fill="white"/>
</mask>
<g mask="url(#mask17_311_5)">
<path d="M71.8765 98.5149V91.2521H72.4056V98.5149H71.8765Z" fill="black"/>
</g>
<path d="M78.0079 98.5663C77.4688 98.5663 76.9685 98.4748 76.509 98.2918C76.0488 98.1081 75.6495 97.8504 75.3103 97.5188C74.9718 97.1865 74.7091 96.7978 74.5223 96.3515C74.3355 95.9051 74.2421 95.4161 74.2421 94.8832C74.2421 94.351 74.3355 93.8614 74.5223 93.415C74.7091 92.9693 74.9737 92.58 75.316 92.2483C75.6583 91.9161 76.0576 91.6584 76.514 91.4754C76.9704 91.2923 77.4688 91.2001 78.0079 91.2001C78.5201 91.2001 78.9991 91.2835 79.4448 91.449C79.8912 91.6152 80.2736 91.8678 80.5914 92.2063L80.2592 92.5493C79.9482 92.2446 79.604 92.0252 79.2273 91.8904C78.8499 91.755 78.4505 91.6879 78.0286 91.6879C77.5653 91.6879 77.1346 91.7675 76.7372 91.9267C76.3391 92.086 75.9937 92.3104 75.6996 92.6007C75.4056 92.8915 75.1774 93.2301 75.015 93.6175C74.852 94.0049 74.7712 94.4269 74.7712 94.8832C74.7712 95.3396 74.852 95.7615 75.015 96.149C75.1774 96.5364 75.4056 96.8756 75.6996 97.1658C75.9937 97.4561 76.3391 97.6811 76.7372 97.8404C77.1346 97.9996 77.5653 98.0786 78.0286 98.0786C78.4505 98.0786 78.8499 98.0115 79.2273 97.8767C79.604 97.742 79.9482 97.5188 80.2592 97.2072L80.5914 97.5495C80.2736 97.8887 79.8912 98.1432 79.4448 98.3125C78.9991 98.4817 78.5201 98.5663 78.0079 98.5663Z" fill="black"/>
</g>
</g>
<defs>
<clipPath id="clip0_311_5">
<rect width="82" height="101.873" fill="white"/>
</clipPath>
</defs>
</svg>
