<svg width="62" height="77" viewBox="0 0 62 77" fill="none" xmlns="http://www.w3.org/2000/svg">
<g clip-path="url(#clip0_169_19741)">
<mask id="mask0_169_19741" style="mask-type:luminance" maskUnits="userSpaceOnUse" x="0" y="0" width="62" height="77">
<path fill-rule="evenodd" clip-rule="evenodd" d="M0 77H62V-7.62939e-06H0V77Z" fill="white"/>
</mask>
<g mask="url(#mask0_169_19741)">
<mask id="mask1_169_19741" style="mask-type:luminance" maskUnits="userSpaceOnUse" x="0" y="0" width="62" height="77">
<path fill-rule="evenodd" clip-rule="evenodd" d="M0 0.0137329V77H61.9853V0.0137329H0Z" fill="white"/>
</mask>
<g mask="url(#mask1_169_19741)">
<path d="M45.5408 2.28913C45.4793 2.30059 45.4182 2.31299 45.3567 2.32587C44.2278 2.55969 43.1086 2.78328 41.9961 3.07901C41.8226 3.12513 41.6318 3.18193 41.4328 3.24518C41.0551 3.36526 40.6288 3.51889 40.2076 3.6792C38.7255 4.24332 37.3408 5.03701 36.1126 6.0399C36.0786 6.06767 36.0482 6.09274 36.0222 6.11463C35.3429 6.68798 34.6809 7.28057 34.037 7.89293C33.393 8.50528 32.7673 9.13644 32.1603 9.78542C30.9391 11.092 29.9033 12.5594 29.081 14.1466L28.2044 15.923C27.7207 16.9035 27.3366 17.9306 27.0659 18.9902C26.9909 19.2837 26.9247 19.5753 26.8797 19.8339L26.7337 19.8305C24.4986 19.78 22.2918 19.3232 20.2202 18.4823C19.8715 18.3409 19.5288 18.1857 19.1927 18.0176C18.8564 17.8491 18.5268 17.6683 18.2041 17.474C17.1732 16.8531 15.9634 16.0565 15.304 15.5232L15.2529 15.482C14.4125 14.8015 13.5252 14.1816 12.5978 13.6261L11.523 12.9827C10.9168 12.62 10.1744 12.5656 9.52179 12.8359C9.06793 13.0238 8.6618 13.299 8.32312 13.6409C7.98444 13.9827 7.71317 14.3918 7.52959 14.8469C7.0599 16.0126 6.69102 17.2139 6.42667 18.4379C6.1618 19.6618 6.00097 20.9086 5.94736 22.1639L5.9329 22.5052C5.68575 28.2692 5.95963 34.0441 6.75113 39.7589L7.28552 43.616L10.7137 63.7007L10.3506 62.7539C8.45783 57.816 6.81597 52.7852 5.43178 47.6818L3.29251 39.7971C1.94903 34.8445 0.950804 29.805 0.305733 24.7139L0.284323 24.5473C-0.20508 20.6859 -0.0613463 16.807 0.705207 13.0276C0.824126 12.4423 0.94077 11.8674 1.04879 11.3357C1.41822 9.5132 2.26141 7.82005 3.49316 6.42618L3.64379 6.2557C4.86899 4.8695 6.52962 3.94185 8.35227 3.62548L8.46158 3.60648C9.57478 3.41354 10.7195 3.51269 11.7828 3.89453L11.8318 3.91209C12.8538 4.27913 13.7727 4.88594 14.5118 5.68153C15.0197 6.22854 15.6314 6.88643 16.1962 7.49404C17.3393 8.72338 18.7012 9.72946 20.2124 10.4612L21.1589 10.919C21.7445 11.2027 22.407 11.2868 23.0448 11.1588L23.0732 11.1529C23.8705 10.9931 24.5999 10.607 25.1769 10.0417L28.59 6.69717C29.9216 5.39248 31.3189 4.15588 32.7759 2.99269L34.0796 1.95171C35.6294 0.714218 37.5497 0.0320854 39.5329 0.0142174C40.715 0.00357056 41.8751 0.229099 42.9494 0.665802C43.8937 1.04965 44.7718 1.59664 45.5408 2.28913Z" fill="white"/>
</g>
<mask id="mask2_169_19741" style="mask-type:luminance" maskUnits="userSpaceOnUse" x="0" y="0" width="62" height="77">
<path fill-rule="evenodd" clip-rule="evenodd" d="M0 0.0137329V77H61.9853V0.0137329H0Z" fill="white"/>
</mask>
<g mask="url(#mask2_169_19741)">
<path d="M39.6187 13.9472L40.3777 13.1774C42.2969 11.5608 44.0034 10.471 46.1793 9.65971C46.1987 9.65251 46.2189 9.64772 46.2387 9.64175C46.2387 9.64175 45.9095 15.7302 45.2569 18.7083C44.8375 20.6224 44.2905 22.5063 43.6196 24.3474L40.8094 32.059C40.1316 33.9189 39.3682 35.7465 38.5216 37.5359L37.4737 39.7505C36.8076 41.1584 36.0833 42.538 35.3027 43.8859L33.3457 47.2651L34.9573 41.1999L37.0325 31.903C37.3553 30.4569 37.6156 28.9975 37.8128 27.529L38.6743 21.1118C38.8437 19.85 38.93 18.5787 39.0211 17.4506C39.0655 16.9 39.0978 16.3488 39.1178 15.7968L39.1452 15.0446C39.1601 14.6325 39.3291 14.241 39.6187 13.9472Z" fill="white"/>
</g>
<mask id="mask3_169_19741" style="mask-type:luminance" maskUnits="userSpaceOnUse" x="0" y="0" width="62" height="77">
<path fill-rule="evenodd" clip-rule="evenodd" d="M0 0.0137329V77H61.9853V0.0137329H0Z" fill="white"/>
</mask>
<g mask="url(#mask3_169_19741)">
<path d="M59.44 8.67041L58.8304 8.49404C56.842 7.9186 54.7928 7.57862 52.7252 7.48096L51.2359 7.41059C50.294 7.36614 49.3508 7.43978 48.4269 7.62984C47.2084 7.88069 46.0167 8.24821 44.8685 8.72727L44.7652 8.77039C43.9792 9.09829 43.2136 9.4731 42.4725 9.89279C41.3231 10.5438 40.267 11.3471 39.3329 12.2809C38.1604 13.453 37.1658 14.7904 36.3808 16.2504C35.815 17.3026 35.4244 18.44 35.2244 19.6178H35.2243C35.1428 20.0978 35.19 20.5909 35.361 21.0468C35.4662 21.3273 35.6869 21.549 35.9669 21.6556L37.5173 22.2461L36.7352 28.7141L36.4781 28.7378C35.382 28.7378 34.2921 28.573 33.245 28.2491L32.1915 27.9232C31.627 27.7485 31.1147 27.4365 30.7006 27.0151C29.9165 26.2172 29.3401 25.2392 29.0216 24.167L29.0164 24.1494C28.7449 23.2354 28.6392 22.2802 28.7041 21.3289L28.7755 20.2817C28.8228 20.0038 28.8981 19.6831 28.9838 19.3592C29.264 18.3024 29.6573 17.2787 30.1499 16.3025L31.0423 14.5342C31.8789 12.9543 32.9281 11.4964 34.1607 10.2011C34.6971 9.63729 35.3845 8.9559 35.9878 8.36795C36.9668 7.41391 38.0416 6.56359 39.1978 5.8342C39.795 5.45744 40.4128 5.08547 40.8289 4.88172H40.829C42.9528 3.98522 45.1626 3.30794 47.4239 2.86041H47.4244C49.1484 2.51922 50.9197 2.48699 52.6551 2.76522C54.2207 3.01624 55.6778 3.72237 56.8448 4.79557C58.0052 5.86291 58.8949 7.19115 59.44 8.67041Z" fill="white"/>
</g>
<mask id="mask4_169_19741" style="mask-type:luminance" maskUnits="userSpaceOnUse" x="0" y="0" width="62" height="77">
<path fill-rule="evenodd" clip-rule="evenodd" d="M0 0.0137329V77H61.9853V0.0137329H0Z" fill="white"/>
</mask>
<g mask="url(#mask4_169_19741)">
<path d="M45.4129 21.4924L43.2954 28.1068L43.6177 28.0182C44.8382 27.6828 46.0728 27.4011 47.318 27.1741L48.2887 26.9972C49.7623 26.7285 51.263 26.6402 52.7581 26.734C53.3852 26.7734 53.981 27.021 54.4512 27.4376C55.0176 27.9395 55.3542 28.651 55.3826 29.407L55.421 30.4372C55.4542 31.3108 55.3177 32.1825 55.02 33.0044L54.6674 33.9786C54.0459 35.6956 53.2415 37.341 52.2684 38.8864L51.7015 39.786C50.388 41.8725 48.8693 43.8228 47.1685 45.6082L46.9641 45.8227C45.3396 47.5279 43.496 49.0101 41.4815 50.2312H41.4815C40.445 50.8591 39.3209 51.3296 38.1461 51.6272C36.6961 51.9944 35.1864 52.0617 33.7096 51.8248C32.4992 51.631 31.3855 51.0462 30.5382 50.1606L29.5286 49.1054C28.2752 47.7952 27.31 46.2373 26.6952 44.5317L25.4135 40.9761L25.2634 45.4795C25.227 46.5721 25.2773 47.6658 25.4138 48.7504C25.6723 50.8055 26.1984 52.8179 26.9788 54.7365C27.4783 55.9648 28.2577 57.0593 29.255 57.9336H29.255C30.4343 58.967 31.8688 59.6664 33.4096 59.9588L33.4194 59.9607C34.6625 60.1962 35.9403 60.1815 37.1776 59.9166C39.1578 59.493 41.0829 58.8424 42.9119 57.9734C42.9245 57.9672 42.9376 57.9611 42.9512 57.9544C43.9679 57.4678 44.9415 56.8963 45.8648 56.2495C46.7509 55.6293 47.8545 54.8275 48.5223 54.2357L49.3936 53.4638C50.6805 52.3228 51.8456 51.0519 52.8709 49.6711L54.8285 47.0345C55.54 46.0755 56.1846 45.0684 56.7568 44.0202L58.7988 40.2798C59.4226 39.1374 59.9487 37.9444 60.3725 36.7136L60.9332 35.0821C61.3594 33.8437 61.6547 32.5643 61.8144 31.2645L61.8855 30.6856C62.0671 29.2059 61.9998 27.7063 61.6864 26.2489C61.3788 24.8166 60.6749 23.4995 59.6548 22.4473C58.931 21.7007 58.0522 21.1222 57.08 20.7528C55.7988 20.266 54.4303 20.0524 53.0619 20.1255L51.4792 20.2102C50.279 20.2744 49.0893 20.4693 47.9308 20.7916L45.4129 21.4924Z" fill="white"/>
</g>
<mask id="mask5_169_19741" style="mask-type:luminance" maskUnits="userSpaceOnUse" x="0" y="0" width="62" height="77">
<path fill-rule="evenodd" clip-rule="evenodd" d="M0 0.0137329V77H61.9853V0.0137329H0Z" fill="white"/>
</mask>
<g mask="url(#mask5_169_19741)">
<path d="M56.4228 67.1934H5.5625C11.4054 66.6868 17.2675 66.4333 23.1323 66.4333H38.8516C44.7168 66.4333 50.5793 66.6868 56.4228 67.1934Z" fill="white"/>
</g>
<mask id="mask6_169_19741" style="mask-type:luminance" maskUnits="userSpaceOnUse" x="0" y="0" width="62" height="77">
<path fill-rule="evenodd" clip-rule="evenodd" d="M0 0.0137329V77H61.9853V0.0137329H0Z" fill="white"/>
</mask>
<g mask="url(#mask6_169_19741)">
<path d="M56.4228 76.2437C50.5793 76.7474 44.717 77 38.8519 77H23.132C17.2674 77 11.4054 76.7474 5.5625 76.2437H56.4228Z" fill="white"/>
</g>
<mask id="mask7_169_19741" style="mask-type:luminance" maskUnits="userSpaceOnUse" x="0" y="0" width="62" height="77">
<path fill-rule="evenodd" clip-rule="evenodd" d="M0 0.0137329V77H61.9853V0.0137329H0Z" fill="white"/>
</mask>
<g mask="url(#mask7_169_19741)">
<path d="M1.45086 74.1008H3.19235C3.71007 74.1008 4.1598 73.999 4.5416 73.7952C4.92329 73.591 5.21883 73.3105 5.42806 72.9522C5.63714 72.594 5.7418 72.1822 5.7418 71.7169C5.7418 71.2516 5.63714 70.8398 5.42806 70.4821C5.21883 70.1238 4.92329 69.8429 4.5416 69.6391C4.1598 69.4349 3.71007 69.333 3.19235 69.333H1.45086V74.1008ZM1.05078 74.4619V68.9724H3.22373C3.80423 68.9724 4.31411 69.0899 4.7534 69.3254C5.19271 69.5604 5.53395 69.8846 5.77712 70.2978C6.02028 70.7105 6.14191 71.1838 6.14191 71.7169C6.14191 72.2505 6.02028 72.7234 5.77712 73.1366C5.53395 73.5493 5.19271 73.8734 4.7534 74.1089C4.31411 74.3439 3.80423 74.4619 3.22373 74.4619H1.05078Z" fill="white"/>
</g>
<mask id="mask8_169_19741" style="mask-type:luminance" maskUnits="userSpaceOnUse" x="0" y="0" width="62" height="77">
<path fill-rule="evenodd" clip-rule="evenodd" d="M0 0.0137329V77H61.9853V0.0137329H0Z" fill="white"/>
</mask>
<g mask="url(#mask8_169_19741)">
<path d="M7.88234 71.4975H10.8554V71.8505H7.88234V71.4975ZM7.92941 74.1008H11.3182V74.4619H7.5293V68.9724H11.2006V69.333H7.92941V74.1008Z" fill="white"/>
</g>
<mask id="mask9_169_19741" style="mask-type:luminance" maskUnits="userSpaceOnUse" x="0" y="0" width="62" height="77">
<path fill-rule="evenodd" clip-rule="evenodd" d="M0 0.0137329V77H61.9853V0.0137329H0Z" fill="white"/>
</mask>
<g mask="url(#mask9_169_19741)">
<path d="M12.7773 74.4619V68.9724H13.1146L17.0291 73.9677H16.8487V68.9724H17.2487V74.4619H16.9193L12.997 69.4666H13.1775V74.4619H12.7773Z" fill="white"/>
</g>
<mask id="mask10_169_19741" style="mask-type:luminance" maskUnits="userSpaceOnUse" x="0" y="0" width="62" height="77">
<path fill-rule="evenodd" clip-rule="evenodd" d="M0 0.0137329V77H61.9853V0.0137329H0Z" fill="white"/>
</mask>
<g mask="url(#mask10_169_19741)">
<path d="M20.2151 74.4619V69.333H18.2383V68.9724H22.592V69.333H20.6152V74.4619H20.2151Z" fill="white"/>
</g>
<mask id="mask11_169_19741" style="mask-type:luminance" maskUnits="userSpaceOnUse" x="0" y="0" width="62" height="77">
<path fill-rule="evenodd" clip-rule="evenodd" d="M0 0.0137329V77H61.9853V0.0137329H0Z" fill="white"/>
</mask>
<g mask="url(#mask11_169_19741)">
<path d="M23.3124 72.9167L23.4457 72.5798H26.7326L26.8659 72.9167H23.3124ZM22.3867 74.4619L24.9127 68.9724H25.3127L27.8387 74.4619H27.4072L25.0225 69.2231H25.1951L22.8182 74.4619H22.3867Z" fill="white"/>
</g>
<mask id="mask12_169_19741" style="mask-type:luminance" maskUnits="userSpaceOnUse" x="0" y="0" width="62" height="77">
<path fill-rule="evenodd" clip-rule="evenodd" d="M0 0.0137329V77H61.9853V0.0137329H0Z" fill="white"/>
</mask>
<g mask="url(#mask12_169_19741)">
<path d="M28.8359 74.4619V68.9724H29.236V74.1008H32.3974V74.4619H28.8359Z" fill="white"/>
</g>
<mask id="mask13_169_19741" style="mask-type:luminance" maskUnits="userSpaceOnUse" x="0" y="0" width="62" height="77">
<path fill-rule="evenodd" clip-rule="evenodd" d="M0 0.0137329V77H61.9853V0.0137329H0Z" fill="white"/>
</mask>
<g mask="url(#mask13_169_19741)">
<path d="M37.7616 74.5005C37.3537 74.5005 36.9758 74.4313 36.6281 74.2929C36.2802 74.1541 35.9782 73.9594 35.7221 73.7087C35.4658 73.4576 35.2671 73.1638 35.1258 72.8264C34.9846 72.489 34.9141 72.1194 34.9141 71.7166C34.9141 71.3143 34.9846 70.9443 35.1258 70.6069C35.2671 70.27 35.4671 69.9757 35.7259 69.7251C35.9848 69.4739 36.2868 69.2792 36.632 69.1408C36.9772 69.0025 37.3537 68.9328 37.7616 68.9328C38.1486 68.9328 38.5108 68.9958 38.8481 69.1209C39.1854 69.2465 39.4743 69.4374 39.7149 69.6933L39.4639 69.9525C39.2286 69.7222 38.9683 69.5564 38.6834 69.4545C38.3982 69.3522 38.0963 69.3014 37.7773 69.3014C37.4269 69.3014 37.1014 69.3616 36.8007 69.482C36.4999 69.6023 36.2384 69.772 36.0162 69.9914C35.7939 70.2112 35.6213 70.4671 35.4985 70.7599C35.3756 71.0528 35.3141 71.3717 35.3141 71.7166C35.3141 72.0616 35.3756 72.3805 35.4985 72.6733C35.6213 72.9662 35.7939 73.2225 36.0162 73.4419C36.2384 73.6613 36.4999 73.8314 36.8007 73.9518C37.1014 74.0721 37.4269 74.1318 37.7773 74.1318C38.0963 74.1318 38.3982 74.0811 38.6834 73.9793C38.9683 73.8774 39.2286 73.7087 39.4639 73.4732L39.7149 73.7319C39.4743 73.9883 39.1854 74.1806 38.8481 74.3086C38.5108 74.4365 38.1486 74.5005 37.7616 74.5005Z" fill="white"/>
</g>
<mask id="mask14_169_19741" style="mask-type:luminance" maskUnits="userSpaceOnUse" x="0" y="0" width="62" height="77">
<path fill-rule="evenodd" clip-rule="evenodd" d="M0 0.0137329V77H61.9853V0.0137329H0Z" fill="white"/>
</mask>
<g mask="url(#mask14_169_19741)">
<path d="M41.0566 74.4619V68.9724H41.4567V74.1008H44.6181V74.4619H41.0566Z" fill="white"/>
</g>
<mask id="mask15_169_19741" style="mask-type:luminance" maskUnits="userSpaceOnUse" x="0" y="0" width="62" height="77">
<path fill-rule="evenodd" clip-rule="evenodd" d="M0 0.0137329V77H61.9853V0.0137329H0Z" fill="white"/>
</mask>
<g mask="url(#mask15_169_19741)">
<path d="M45.6465 74.4619V68.9724H46.0465V74.4619H45.6465Z" fill="white"/>
</g>
<mask id="mask16_169_19741" style="mask-type:luminance" maskUnits="userSpaceOnUse" x="0" y="0" width="62" height="77">
<path fill-rule="evenodd" clip-rule="evenodd" d="M0 0.0137329V77H61.9853V0.0137329H0Z" fill="white"/>
</mask>
<g mask="url(#mask16_169_19741)">
<path d="M47.9609 74.4619V68.9724H48.2984L52.2128 73.9677H52.0322V68.9724H52.4327V74.4619H52.1028L48.1809 69.4666H48.361V74.4619H47.9609Z" fill="white"/>
</g>
<mask id="mask17_169_19741" style="mask-type:luminance" maskUnits="userSpaceOnUse" x="0" y="0" width="62" height="77">
<path fill-rule="evenodd" clip-rule="evenodd" d="M0 0.0137303V77H61.9853V0.0137303H0Z" fill="white"/>
</mask>
<g mask="url(#mask17_169_19741)">
<path d="M54.3457 74.4619V68.9724H54.7458V74.4619H54.3457Z" fill="white"/>
</g>
<path d="M58.9821 74.5005C58.5745 74.5005 58.1962 74.4313 57.8488 74.2929C57.5009 74.1541 57.1989 73.9594 56.9425 73.7087C56.6865 73.4576 56.4879 73.1638 56.3466 72.8264C56.2054 72.489 56.1348 72.1194 56.1348 71.7166C56.1348 71.3143 56.2054 70.9443 56.3466 70.6069C56.4879 70.27 56.6879 69.9757 56.9467 69.7251C57.2055 69.4739 57.5075 69.2792 57.8526 69.1408C58.1976 69.0025 58.5745 68.9328 58.9821 68.9328C59.3694 68.9328 59.7315 68.9958 60.0685 69.1209C60.406 69.2465 60.6952 69.4374 60.9355 69.6933L60.6843 69.9525C60.4492 69.7222 60.1889 69.5564 59.9041 69.4545C59.6187 69.3522 59.3168 69.3014 58.9978 69.3014C58.6475 69.3014 58.3218 69.3616 58.0213 69.482C57.7203 69.6023 57.4591 69.772 57.2368 69.9914C57.0145 70.2112 56.842 70.4671 56.7192 70.7599C56.596 71.0528 56.5348 71.3717 56.5348 71.7166C56.5348 72.0616 56.596 72.3805 56.7192 72.6733C56.842 72.9662 57.0145 73.2225 57.2368 73.4419C57.4591 73.6613 57.7203 73.8314 58.0213 73.9518C58.3218 74.0721 58.6475 74.1318 58.9978 74.1318C59.3168 74.1318 59.6187 74.0811 59.9041 73.9793C60.1889 73.8774 60.4492 73.7087 60.6843 73.4732L60.9355 73.7319C60.6952 73.9883 60.406 74.1806 60.0685 74.3086C59.7315 74.4365 59.3694 74.5005 58.9821 74.5005Z" fill="white"/>
</g>
</g>
<defs>
<clipPath id="clip0_169_19741">
<rect width="62" height="77" fill="white"/>
</clipPath>
</defs>
</svg>
