<svg width="22" height="22" viewBox="0 0 22 22" fill="none" xmlns="http://www.w3.org/2000/svg">
<path fill-rule="evenodd" clip-rule="evenodd" d="M10.7151 2.68542C10.8436 2.58403 16.2176 -1.59645 19.7697 2.52203C21.7201 4.78245 21.5548 7.12876 20.8314 9.42599L18.2855 16.7194C17.5409 19.2556 17.01 20.039 15.7054 21.1401C14.9317 21.7943 14.0586 20.6648 13.1395 19.4758C12.3432 18.4457 11.5127 17.3717 10.6828 17.3743C9.83869 17.3768 8.99459 18.4528 8.1873 19.4823C7.25665 20.6693 6.3738 21.795 5.59557 21.1401C4.02425 19.8174 3.33515 17.9904 2.6144 15.0577C2.47555 14.4932 2.265 13.8157 2.03186 13.0685C1.05665 9.93684 -0.300891 5.58005 1.68957 3.16334C4.14825 0.178299 7.20175 -0.302201 10.6821 2.66153L10.7151 2.68542ZM8.99717 2.99155C7.79334 2.16488 6.76904 1.90138 5.91654 1.96855C4.86965 2.05057 3.78142 2.65507 2.68738 3.9842C1.8633 4.98395 1.77998 6.67215 2.22367 8.87832C2.43486 9.92909 2.74357 10.9928 3.05421 12.0035C3.12073 12.2218 3.18919 12.4401 3.25636 12.6564C3.49209 13.4121 3.71942 14.1425 3.86861 14.7489C4.528 17.4343 5.10215 18.8771 6.14259 19.8937C6.35765 19.6934 6.6289 19.3731 6.98863 18.9178L7.163 18.6956C7.53113 18.2261 7.96707 17.6688 8.41205 17.2231C8.8848 16.751 9.66561 16.0852 10.6789 16.0826C11.6968 16.0794 12.4756 16.7556 12.9387 17.2251C13.3772 17.67 13.8073 18.2268 14.1703 18.6969L14.3427 18.9197C14.6947 19.3718 14.9614 19.6922 15.1726 19.8917C15.5905 19.5133 15.8617 19.1974 16.0962 18.8048C16.3997 18.2978 16.6819 17.5951 17.0455 16.3558L17.0656 16.2938L19.605 9.01976C19.9369 7.96059 20.1055 6.99378 20.0183 6.08509C19.9318 5.2003 19.5966 4.29807 18.7919 3.36549C17.4589 1.81936 15.821 1.79611 14.2749 2.27467C13.4967 2.51622 12.7985 2.8753 12.287 3.18272C12.0946 3.29767 11.9331 3.40295 11.8078 3.48884L14.2878 5.31267C14.4259 5.41408 14.518 5.56617 14.5439 5.73549C14.5699 5.90481 14.5274 6.07749 14.426 6.21555C14.3246 6.35361 14.1726 6.44573 14.0032 6.47165C13.8339 6.49756 13.6612 6.45516 13.5232 6.35376L10.0195 3.77688C9.97056 3.74583 9.92374 3.71152 9.87938 3.67419L9.1315 3.12459C9.08042 3.0871 9.03516 3.04226 8.99717 2.99155Z" fill="white"/>
</svg>
