<svg width="39" height="39" viewBox="0 0 39 39" fill="none" xmlns="http://www.w3.org/2000/svg">
<path d="M37.2519 16.6985L37.2494 16.7058L32.7367 29.6338C32.0743 31.8882 31.4952 33.4063 30.7734 34.6138C30.0439 35.8342 29.1842 36.7112 28.0054 37.7062M37.2519 16.6985L27.6829 37.3241M37.2519 16.6985L37.2542 16.6912C37.906 14.6214 38.3199 12.4891 38.112 10.3438C37.9031 8.1874 37.0685 6.04731 35.2721 3.96542C31.944 0.106703 27.7458 0.155224 24.4394 1.15066C21.7787 1.95169 19.635 3.37718 18.8432 3.94767C15.7853 1.41598 12.8457 0.302408 10.0729 0.528518C7.22275 0.760935 4.6644 2.3993 2.43004 5.11199L2.43003 5.112C0.53195 7.41655 0.268002 10.5951 0.650013 13.8002C1.03221 17.0069 2.07705 20.3622 2.93798 23.1268L2.94588 23.1522L2.94596 23.1524C3.36096 24.4825 3.72932 25.6685 3.97126 26.652M37.2519 16.6985L9.74598 37.3241C11.1267 38.486 12.6931 36.4888 14.3442 34.3828M28.0054 37.7062L27.6829 37.3241M28.0054 37.7062C28.0055 37.7061 28.0056 37.706 28.0057 37.7059L27.6829 37.3241M28.0054 37.7062C27.5594 38.0832 27.0609 38.2249 26.5435 38.1429C26.0546 38.0655 25.5997 37.7966 25.1881 37.4621C24.3801 36.8058 23.5568 35.7405 22.7639 34.7147L22.7349 34.6771C22.0224 33.7555 21.3238 32.8537 20.626 32.1796C19.9129 31.4907 19.3011 31.1411 18.7732 31.1428C18.2284 31.1445 17.6023 31.5014 16.8785 32.1915C16.1692 32.8677 15.4599 33.7704 14.7377 34.6913L14.3442 34.3828M27.6829 37.3241C26.3101 38.4849 24.761 36.4808 23.1305 34.3713C21.7176 32.5437 20.2441 30.6382 18.7717 30.6428C17.2741 30.6474 15.7765 32.5563 14.3442 34.3828M14.3442 34.3828L14.7377 34.6913L14.7092 34.7276C13.9059 35.7523 13.0726 36.8152 12.2563 37.4692C11.8404 37.8023 11.3822 38.069 10.8912 38.145C10.3722 38.2253 9.8721 38.0838 9.42405 37.7067L9.42399 37.7067C6.50225 35.2473 5.2512 31.8601 3.97126 26.652M3.97126 26.652L4.45681 26.5327L3.97126 26.652ZM10.3547 3.80854L10.3545 3.80855C8.67603 3.94006 6.85941 4.91142 4.97233 7.20399L4.97211 7.20426C4.32599 7.9881 3.94569 9.07133 3.82974 10.4665C3.71373 11.8625 3.86533 13.5393 4.25377 15.4708L4.25378 15.4708C4.62331 17.3094 5.16483 19.1769 5.71506 20.9671L5.71541 20.9683C5.80202 21.2525 5.89032 21.5362 5.97871 21.8201C6.01023 21.9214 6.04175 22.0226 6.07321 22.124C6.07324 22.1241 6.07326 22.1242 6.07329 22.1242L5.59577 22.2725L10.3547 3.80854ZM10.3547 3.80854C11.7116 3.70163 13.3969 4.10935 15.4369 5.49551C15.5213 5.59606 15.6174 5.68623 15.7233 5.76403C15.7234 5.76408 15.7235 5.76413 15.7235 5.76418L17.0376 6.72988C17.1249 6.80239 17.2165 6.86952 17.3119 6.93091L23.5148 11.4931L23.5151 11.4933C23.8669 11.7517 24.307 11.8597 24.7385 11.7937C25.17 11.7276 25.5575 11.4929 25.8159 11.1411C26.0743 10.7893 26.1824 10.3492 26.1164 9.9177C26.0503 9.48621 25.8155 9.09863 25.4637 8.84023L21.6458 6.03246C21.7188 5.98728 21.795 5.94088 21.8744 5.8935L21.8755 5.8928C22.7609 5.36067 23.9621 4.74384 25.2929 4.33079C26.6188 3.92039 27.9454 3.73789 29.2046 3.9658C30.452 4.19159 31.669 4.82631 32.7801 6.11501L32.7802 6.11516C34.1413 7.69253 34.6935 9.19625 34.837 10.6614C34.9826 12.1784 34.704 13.8191 34.1267 15.6631L29.6239 28.561L29.6238 28.561L29.6202 28.5722L29.5847 28.6822L29.5845 28.6821L29.5807 28.6951C28.9388 30.883 28.4522 32.0803 27.9471 32.924L27.9468 32.9245M10.3547 3.80854L27.9468 32.9245M14.3891 30.0214L14.3896 30.0209C15.2375 29.1742 16.7494 27.8564 18.7632 27.8511C18.7633 27.8511 18.7635 27.8511 18.7636 27.8511L18.7648 28.3511L14.3891 30.0214ZM14.3891 30.0214C13.5867 30.8249 12.806 31.8208 12.1628 32.6412L12.1336 32.6785L12.1334 32.6787L11.8252 33.0714C11.8252 33.0714 11.8251 33.0715 11.8251 33.0715C11.3764 33.6394 11.0161 34.0747 10.7202 34.3965L14.3891 30.0214ZM27.9468 32.9245C27.6297 33.4556 27.2709 33.9044 26.7538 34.4087C26.4613 34.0867 26.1045 33.6489 25.6598 33.0778C25.6598 33.0778 25.6597 33.0777 25.6597 33.0776L25.355 32.6839L25.3546 32.6834L27.9468 32.9245Z" fill="#439CC3" stroke="#439CC3"/>
</svg>
